<?xml version="1.0" encoding="utf-8" ?>
<svg xmlns="http://www.w3.org/2000/svg" xmlns:xlink="http://www.w3.org/1999/xlink" width="512" height="512">
	<path fill="#82859A" d="M267.562 478.765L250.533 478.983C188.63 478.958 127.411 449.243 86.6823 403.078C53.6844 365.676 32.6866 316.887 30.254 266.991L30.1677 252.517C30.1587 134.337 126.2 33.5284 244.64 28.5811C257.437 28.206 270.427 28.2722 283.141 29.8055C416.184 45.8505 505.358 175.268 476.069 303.941C453.993 400.929 366.899 474.835 267.562 478.765ZM245.943 72.7445C219.221 74.6324 192.465 81.7815 168.963 94.821C107.817 128.746 69.7765 196.181 74.5231 266.093C80.8016 358.569 160.498 434.575 253.478 434.501L261.447 434.477C262.791 434.471 264.265 434.331 265.595 434.498C374.171 430.235 455.99 324.538 433.731 219C416.479 137.202 348.468 77.8996 265.647 72.8166C259.146 72.4176 252.46 72.6691 245.943 72.7445Z"/>
	<path fill="#82859A" d="M381.622 254.375L320.753 254.672C296.993 254.618 277.22 245.983 267.941 222.027C264.925 214.24 264.565 208.578 264.575 200.289L264.462 133.542C271.643 133.566 278.333 134.742 285.312 136.465C327.395 146.857 363.547 179.543 376.125 221.316C379.35 232.025 380.967 243.026 382.125 254.122L381.622 254.375Z"/>
	<path fill="#82859A" d="M133.996 254.682L129.484 254.726C131.658 192.801 181.262 139.182 243.468 133.853L247.507 133.649L247.53 198.833C247.534 201.886 247.718 205.099 247.333 208.125C244.46 230.677 228.498 248.843 206.276 253.66C201.651 254.662 196.982 254.655 192.278 254.67L133.996 254.682Z"/>
	<path fill="#82859A" d="M247.522 381.24L246.881 381.269C243.001 381.384 238.955 380.659 235.129 380.08C188.112 372.969 149.317 337.497 134.75 292.673C132.462 285.632 130.611 278.812 130.44 271.387C132.666 271.303 135.345 271.589 137.614 271.59L201.02 271.673C222.996 272.627 241.908 290.914 246.715 311.781C247.901 316.927 247.512 322.37 247.514 327.618L247.524 369.375C247.532 373.327 247.722 377.292 247.522 381.24Z"/>
	<path fill="#82859A" d="M308.064 370.909C294.293 376.746 279.451 380.404 264.55 381.525L264.605 326.637C264.608 320.568 264.632 315.083 266.166 309.157C271.17 289.823 288.577 274.693 308.361 272.197C314.703 271.397 321.151 271.618 327.531 271.609L381.893 271.63C378.615 283.35 376.891 293.679 372.157 305.594C360.941 333.821 335.729 358.968 308.064 370.909Z"/>
</svg>
